<svg width="148" height="25" viewBox="0 0 148 25" fill="none" xmlns="http://www.w3.org/2000/svg">
<path d="M7.436 19.26C6.15333 19.26 5.00067 18.974 3.978 18.402C2.95533 17.83 2.14933 17.05 1.56 16.062C0.970667 15.074 0.676 13.9647 0.676 12.734C0.676 11.486 0.970667 10.368 1.56 9.38C2.14933 8.392 2.95533 7.612 3.978 7.04C5.018 6.45067 6.17067 6.156 7.436 6.156C8.424 6.156 9.334 6.338 10.166 6.702C10.998 7.066 11.7173 7.586 12.324 8.262L10.14 10.472C9.81067 10.108 9.412 9.83067 8.944 9.64C8.49333 9.44933 7.99067 9.354 7.436 9.354C6.812 9.354 6.24867 9.50133 5.746 9.796C5.26067 10.0733 4.87067 10.4633 4.576 10.966C4.29867 11.4513 4.16 12.032 4.16 12.708C4.16 13.3667 4.29867 13.956 4.576 14.476C4.87067 14.9787 5.26067 15.3773 5.746 15.672C6.24867 15.9493 6.812 16.088 7.436 16.088C8.008 16.088 8.51933 15.9927 8.97 15.802C9.438 15.594 9.83667 15.2993 10.166 14.918L12.376 17.128C11.7347 17.8213 10.998 18.35 10.166 18.714C9.334 19.078 8.424 19.26 7.436 19.26ZM18.4976 19.26C17.3536 19.26 16.3222 18.974 15.4036 18.402C14.4849 17.83 13.7656 17.05 13.2456 16.062C12.7256 15.074 12.4656 13.9647 12.4656 12.734C12.4656 11.486 12.7256 10.368 13.2456 9.38C13.7656 8.392 14.4849 7.612 15.4036 7.04C16.3222 6.468 17.3536 6.182 18.4976 6.182C19.3989 6.182 20.2049 6.364 20.9156 6.728C21.6262 7.092 22.1896 7.60333 22.6056 8.262C23.0389 8.90333 23.2729 9.63133 23.3076 10.446V14.97C23.2729 15.802 23.0389 16.5387 22.6056 17.18C22.1896 17.8213 21.6262 18.3327 20.9156 18.714C20.2049 19.078 19.3989 19.26 18.4976 19.26ZM19.1216 16.114C20.0749 16.114 20.8462 15.802 21.4356 15.178C22.0249 14.5367 22.3196 13.7133 22.3196 12.708C22.3196 12.0493 22.1809 11.4687 21.9036 10.966C21.6436 10.446 21.2709 10.0473 20.7856 9.77C20.3176 9.47533 19.7629 9.328 19.1216 9.328C18.4976 9.328 17.9429 9.47533 17.4576 9.77C16.9896 10.0473 16.6169 10.446 16.3396 10.966C16.0796 11.4687 15.9496 12.0493 15.9496 12.708C15.9496 13.384 16.0796 13.982 16.3396 14.502C16.6169 15.0047 16.9896 15.4033 17.4576 15.698C17.9429 15.9753 18.4976 16.114 19.1216 16.114ZM22.1376 19V15.62L22.6836 12.552L22.1376 9.536V6.442H25.5176V19H22.1376ZM27.7507 19V6.442H31.1827V19H27.7507ZM29.4667 4.414C28.9121 4.414 28.4527 4.232 28.0887 3.868C27.7247 3.48667 27.5427 3.01867 27.5427 2.464C27.5427 1.92667 27.7247 1.46733 28.0887 1.086C28.4527 0.704666 28.9121 0.513999 29.4667 0.513999C30.0387 0.513999 30.4981 0.704666 30.8447 1.086C31.2087 1.46733 31.3907 1.92667 31.3907 2.464C31.3907 3.01867 31.2087 3.48667 30.8447 3.868C30.4981 4.232 30.0387 4.414 29.4667 4.414ZM39.322 19.26C38.0566 19.26 36.9126 18.974 35.89 18.402C34.8846 17.8127 34.0786 17.024 33.472 16.036C32.8826 15.0307 32.588 13.9127 32.588 12.682C32.588 11.4513 32.8826 10.3507 33.472 9.38C34.0613 8.392 34.8673 7.612 35.89 7.04C36.9126 6.45067 38.048 6.156 39.296 6.156C40.5786 6.156 41.7226 6.45067 42.728 7.04C43.7506 7.612 44.5566 8.392 45.146 9.38C45.7353 10.3507 46.03 11.4513 46.03 12.682C46.03 13.9127 45.7353 15.0307 45.146 16.036C44.5566 17.024 43.7506 17.8127 42.728 18.402C41.7226 18.974 40.5873 19.26 39.322 19.26ZM39.296 16.088C39.9373 16.088 40.5006 15.9493 40.986 15.672C41.4886 15.3773 41.87 14.9787 42.13 14.476C42.4073 13.956 42.546 13.3667 42.546 12.708C42.546 12.0493 42.4073 11.4687 42.13 10.966C41.8526 10.4633 41.4713 10.0733 40.986 9.796C40.5006 9.50133 39.9373 9.354 39.296 9.354C38.672 9.354 38.1173 9.50133 37.632 9.796C37.1466 10.0733 36.7653 10.4633 36.488 10.966C36.2106 11.4687 36.072 12.0493 36.072 12.708C36.072 13.3667 36.2106 13.956 36.488 14.476C36.7653 14.9787 37.1466 15.3773 37.632 15.672C38.1173 15.9493 38.672 16.088 39.296 16.088ZM54.4107 19.26C53.5094 19.26 52.6947 19.078 51.9667 18.714C51.2387 18.3327 50.658 17.8213 50.2247 17.18C49.7914 16.5387 49.5574 15.802 49.5227 14.97V10.524C49.5574 9.692 49.7914 8.95533 50.2247 8.314C50.6754 7.65533 51.256 7.13533 51.9667 6.754C52.6947 6.37267 53.5094 6.182 54.4107 6.182C55.572 6.182 56.612 6.468 57.5307 7.04C58.4494 7.612 59.1687 8.392 59.6887 9.38C60.226 10.368 60.4947 11.486 60.4947 12.734C60.4947 13.9647 60.226 15.074 59.6887 16.062C59.1687 17.05 58.4494 17.83 57.5307 18.402C56.612 18.974 55.572 19.26 54.4107 19.26ZM47.4427 24.252V6.442H50.8487V9.744L50.2767 12.786L50.8227 15.828V24.252H47.4427ZM53.8127 16.114C54.4367 16.114 54.9914 15.9753 55.4767 15.698C55.962 15.4033 56.3347 15.0047 56.5947 14.502C56.872 13.982 57.0107 13.384 57.0107 12.708C57.0107 12.0493 56.872 11.4687 56.5947 10.966C56.3347 10.446 55.962 10.0473 55.4767 9.77C54.9914 9.47533 54.4367 9.328 53.8127 9.328C53.206 9.328 52.66 9.47533 52.1747 9.77C51.6894 10.0473 51.308 10.446 51.0307 10.966C50.7707 11.4687 50.6407 12.0493 50.6407 12.708C50.6407 13.384 50.7707 13.982 51.0307 14.502C51.308 15.0047 51.6807 15.4033 52.1487 15.698C52.634 15.9753 53.1887 16.114 53.8127 16.114ZM61.9478 19V6.442H65.3538V19H61.9478ZM70.1378 19V11.59C70.1378 10.862 69.9038 10.2987 69.4358 9.9C68.9852 9.484 68.4218 9.276 67.7458 9.276C67.2952 9.276 66.8878 9.37133 66.5238 9.562C66.1598 9.73533 65.8738 9.99533 65.6658 10.342C65.4578 10.6887 65.3538 11.1047 65.3538 11.59L64.0278 10.94C64.0278 9.96933 64.2358 9.12867 64.6518 8.418C65.0852 7.70733 65.6658 7.16133 66.3938 6.78C67.1218 6.38133 67.9452 6.182 68.8638 6.182C69.7305 6.182 70.5192 6.38133 71.2298 6.78C71.9405 7.16133 72.5038 7.70733 72.9198 8.418C73.3358 9.11133 73.5438 9.952 73.5438 10.94V19H70.1378ZM78.3278 19V11.59C78.3278 10.862 78.0938 10.2987 77.6258 9.9C77.1752 9.484 76.6118 9.276 75.9358 9.276C75.5025 9.276 75.0952 9.37133 74.7138 9.562C74.3498 9.73533 74.0638 9.99533 73.8558 10.342C73.6478 10.6887 73.5438 11.1047 73.5438 11.59L71.5938 11.122C71.6632 10.1167 71.9318 9.25 72.3998 8.522C72.8678 7.77667 73.4832 7.20467 74.2458 6.806C75.0085 6.39 75.8578 6.182 76.7938 6.182C77.7298 6.182 78.5705 6.38133 79.3158 6.78C80.0612 7.16133 80.6505 7.716 81.0838 8.444C81.5172 9.172 81.7338 10.0387 81.7338 11.044V19H78.3278ZM89.6167 19.26C88.3514 19.26 87.2074 18.974 86.1847 18.402C85.1794 17.8127 84.3734 17.024 83.7667 16.036C83.1774 15.0307 82.8827 13.9127 82.8827 12.682C82.8827 11.4513 83.1774 10.3507 83.7667 9.38C84.3561 8.392 85.1621 7.612 86.1847 7.04C87.2074 6.45067 88.3427 6.156 89.5907 6.156C90.8734 6.156 92.0174 6.45067 93.0227 7.04C94.0454 7.612 94.8514 8.392 95.4407 9.38C96.0301 10.3507 96.3247 11.4513 96.3247 12.682C96.3247 13.9127 96.0301 15.0307 95.4407 16.036C94.8514 17.024 94.0454 17.8127 93.0227 18.402C92.0174 18.974 90.8821 19.26 89.6167 19.26ZM89.5907 16.088C90.2321 16.088 90.7954 15.9493 91.2807 15.672C91.7834 15.3773 92.1647 14.9787 92.4247 14.476C92.7021 13.956 92.8407 13.3667 92.8407 12.708C92.8407 12.0493 92.7021 11.4687 92.4247 10.966C92.1474 10.4633 91.7661 10.0733 91.2807 9.796C90.7954 9.50133 90.2321 9.354 89.5907 9.354C88.9667 9.354 88.4121 9.50133 87.9267 9.796C87.4414 10.0733 87.0601 10.4633 86.7827 10.966C86.5054 11.4687 86.3667 12.0493 86.3667 12.708C86.3667 13.3667 86.5054 13.956 86.7827 14.476C87.0601 14.9787 87.4414 15.3773 87.9267 15.672C88.4121 15.9493 88.9667 16.088 89.5907 16.088ZM97.7375 19V6.442H101.143V19H97.7375ZM101.143 12.058L99.8175 11.174C99.9735 9.63133 100.424 8.418 101.169 7.534C101.915 6.63267 102.989 6.182 104.393 6.182C105 6.182 105.546 6.286 106.031 6.494C106.517 6.68467 106.959 7.00533 107.357 7.456L105.225 9.9C105.035 9.692 104.801 9.536 104.523 9.432C104.263 9.328 103.96 9.276 103.613 9.276C102.885 9.276 102.287 9.51 101.819 9.978C101.369 10.4287 101.143 11.122 101.143 12.058ZM113.424 19.26C112.107 19.26 110.937 18.9827 109.914 18.428C108.892 17.856 108.077 17.076 107.47 16.088C106.881 15.1 106.586 13.9733 106.586 12.708C106.586 11.46 106.872 10.3507 107.444 9.38C108.034 8.392 108.831 7.612 109.836 7.04C110.842 6.45067 111.96 6.156 113.19 6.156C114.404 6.156 115.47 6.43333 116.388 6.988C117.324 7.52533 118.052 8.27067 118.572 9.224C119.11 10.16 119.378 11.226 119.378 12.422C119.378 12.6473 119.361 12.8813 119.326 13.124C119.309 13.3493 119.266 13.6093 119.196 13.904L108.64 13.93V11.382L117.61 11.356L116.232 12.422C116.198 11.6767 116.059 11.0527 115.816 10.55C115.591 10.0473 115.253 9.666 114.802 9.406C114.369 9.12867 113.832 8.99 113.19 8.99C112.514 8.99 111.925 9.146 111.422 9.458C110.92 9.75267 110.53 10.1773 110.252 10.732C109.992 11.2693 109.862 11.9107 109.862 12.656C109.862 13.4187 110.001 14.086 110.278 14.658C110.573 15.2127 110.989 15.646 111.526 15.958C112.064 16.2527 112.688 16.4 113.398 16.4C114.04 16.4 114.62 16.296 115.14 16.088C115.66 15.8627 116.111 15.5333 116.492 15.1L118.494 17.102C117.888 17.8127 117.142 18.35 116.258 18.714C115.392 19.078 114.447 19.26 113.424 19.26ZM129.155 19V11.798C129.155 11.0527 128.921 10.446 128.453 9.978C127.985 9.51 127.378 9.276 126.633 9.276C126.147 9.276 125.714 9.38 125.333 9.588C124.951 9.796 124.648 10.0907 124.423 10.472C124.215 10.8533 124.111 11.2953 124.111 11.798L122.785 11.122C122.785 10.134 122.993 9.276 123.409 8.548C123.842 7.80267 124.431 7.222 125.177 6.806C125.939 6.39 126.797 6.182 127.751 6.182C128.669 6.182 129.493 6.416 130.221 6.884C130.949 7.33467 131.521 7.93267 131.937 8.678C132.353 9.406 132.561 10.1947 132.561 11.044V19H129.155ZM120.705 19V6.442H124.111V19H120.705ZM140.426 19.26C139.161 19.26 138.017 18.974 136.994 18.402C135.989 17.8127 135.183 17.024 134.576 16.036C133.987 15.0307 133.692 13.9127 133.692 12.682C133.692 11.4513 133.987 10.3507 134.576 9.38C135.166 8.392 135.972 7.612 136.994 7.04C138.017 6.45067 139.152 6.156 140.4 6.156C141.683 6.156 142.827 6.45067 143.832 7.04C144.855 7.612 145.661 8.392 146.25 9.38C146.84 10.3507 147.134 11.4513 147.134 12.682C147.134 13.9127 146.84 15.0307 146.25 16.036C145.661 17.024 144.855 17.8127 143.832 18.402C142.827 18.974 141.692 19.26 140.426 19.26ZM140.4 16.088C141.042 16.088 141.605 15.9493 142.09 15.672C142.593 15.3773 142.974 14.9787 143.234 14.476C143.512 13.956 143.65 13.3667 143.65 12.708C143.65 12.0493 143.512 11.4687 143.234 10.966C142.957 10.4633 142.576 10.0733 142.09 9.796C141.605 9.50133 141.042 9.354 140.4 9.354C139.776 9.354 139.222 9.50133 138.736 9.796C138.251 10.0733 137.87 10.4633 137.592 10.966C137.315 11.4687 137.176 12.0493 137.176 12.708C137.176 13.3667 137.315 13.956 137.592 14.476C137.87 14.9787 138.251 15.3773 138.736 15.672C139.222 15.9493 139.776 16.088 140.4 16.088Z" fill="#FDFCF0"/>
</svg>
