<svg width="17" height="17" viewBox="0 0 17 17" fill="none" xmlns="http://www.w3.org/2000/svg">
<path d="M1.41669 13.4584L6.31341 10.1225C8.10243 8.90367 8.89761 8.90367 10.6866 10.1225L15.5834 13.4584" stroke="#020202" stroke-width="1.5" stroke-linejoin="round"/>
<path d="M1.42796 10.307C1.47467 12.4556 1.49803 13.5298 2.29935 14.3254C3.10066 15.121 4.2159 15.1486 6.44636 15.2038C7.81952 15.2377 9.18051 15.2377 10.5537 15.2038C12.7842 15.1486 13.8994 15.121 14.7007 14.3254C15.502 13.5298 15.5253 12.4556 15.5721 10.307C15.595 9.25435 15.583 8.21203 15.5362 7.14861C15.5071 6.48812 15.4926 6.15787 15.3251 5.86493C15.1576 5.57199 14.8689 5.38291 14.2914 5.00477L11.6275 3.2604C10.1109 2.26739 9.35271 1.77087 8.50002 1.77087C7.64733 1.77087 6.88911 2.26738 5.37261 3.2604L2.70866 5.00477C2.13117 5.38291 1.84244 5.57199 1.67494 5.86493C1.50744 6.15787 1.4929 6.48813 1.46383 7.14861C1.41703 8.21203 1.40508 9.25435 1.42796 10.307Z" stroke="#020202" stroke-width="1.5" stroke-linejoin="round"/>
<path d="M15.5834 6.72913L12.562 8.93006C11.8295 9.46372 11.2274 9.91663 10.2709 9.91663M1.41669 6.72913L4.438 8.93006C5.17054 9.46372 5.77266 9.91663 6.72919 9.91663" stroke="#020202" stroke-width="1.5" stroke-linejoin="round"/>
</svg>
