<svg width="8" height="8" viewBox="0 0 8 8" fill="none" xmlns="http://www.w3.org/2000/svg">
<g clip-path="url(#clip0_83_46)">
<path d="M3.69971 1.00006C2.48339 1.00225 1.84645 1.03212 1.4394 1.43923C1.00012 1.87858 1.00012 2.5857 1.00012 3.99992C1.00012 5.41415 1.00012 6.12129 1.4394 6.56062C1.87867 6.99999 2.58568 6.99999 3.99971 6.99999C5.41368 6.99999 6.12071 6.99999 6.55997 6.56062C6.96701 6.15352 6.99688 5.51645 6.99908 4.29995" stroke="#B5B5B5" stroke-linecap="round" stroke-linejoin="round"/>
<path d="M6.85202 1.16535L3.68292 4.35285M6.85202 1.16535C6.68736 1.00048 5.57812 1.01585 5.34362 1.01919M6.85202 1.16535C7.01669 1.33023 7.00132 2.44089 6.99799 2.67569" stroke="#B5B5B5" stroke-linecap="round" stroke-linejoin="round"/>
</g>
<defs>
<clipPath id="clip0_83_46">
<rect width="8" height="8" fill="white"/>
</clipPath>
</defs>
</svg>
