<svg width="32" height="32" viewBox="0 0 32 32" fill="none" xmlns="http://www.w3.org/2000/svg">
<path d="M6.66669 7.95399H10.8667M10.8667 7.95399H13.6667M10.8667 7.95399V6.66663M16 7.95399H13.6667M13.6667 7.95399C13.1744 9.71453 12.1434 11.3788 10.9667 12.8413M10.9667 12.8413C9.99229 14.0525 8.91793 15.1253 7.96669 16M10.9667 12.8413C10.3667 12.1379 9.52669 10.9997 9.28669 10.4848M10.9667 12.8413L12.7667 14.7126" stroke="#FDFCF0" stroke-width="1.5" stroke-linecap="round" stroke-linejoin="round"/>
<path d="M9.3631 22.6369C9.43567 24.9304 9.68531 26.3372 10.544 27.3834C10.7656 27.6534 11.0132 27.901 11.2833 28.1226C12.7584 29.3333 14.95 29.3333 19.3334 29.3333C23.7167 29.3333 25.9083 29.3333 27.3835 28.1226C27.6535 27.901 27.9011 27.6534 28.1227 27.3834C29.3334 25.9082 29.3334 23.7166 29.3334 19.3333C29.3334 14.95 29.3334 12.7583 28.1227 11.2832C27.9011 11.0131 27.6535 10.7655 27.3835 10.5439C26.3418 9.68897 24.9427 9.43779 22.6667 9.364M9.3631 22.6369C7.06958 22.5644 5.66286 22.3146 4.61659 21.456C4.34654 21.2344 4.09893 20.9868 3.8773 20.7168C2.66669 19.2416 2.66669 17.05 2.66669 12.6666C2.66669 8.28332 2.66669 6.09167 3.8773 4.61653C4.09893 4.34648 4.34654 4.09887 4.61659 3.87724C6.09173 2.66663 8.28338 2.66663 12.6667 2.66663C17.05 2.66663 19.2416 2.66663 20.7168 3.87724C20.9868 4.09887 21.2344 4.34648 21.456 4.61653C22.3147 5.6628 22.5644 7.06952 22.637 9.36304C22.637 9.36304 22.637 9.36304 22.6667 9.364M9.3631 22.6369L22.6667 9.364" stroke="#FDFCF0" stroke-width="1.5"/>
<path d="M17.3333 25.3334L18.4444 22.6667M18.4444 22.6667L20.6666 17.3334L22.8889 22.6667M18.4444 22.6667H22.8889M24 25.3334L22.8889 22.6667" stroke="#FDFCF0" stroke-width="1.5" stroke-linecap="round" stroke-linejoin="round"/>
</svg>
