<svg width="17" height="17" viewBox="0 0 17 17" fill="none" xmlns="http://www.w3.org/2000/svg">
<g clip-path="url(#clip0_83_21)">
<path d="M8.50002 15.5833C12.412 15.5833 15.5834 12.4119 15.5834 8.49996C15.5834 4.58794 12.412 1.41663 8.50002 1.41663C4.588 1.41663 1.41669 4.58794 1.41669 8.49996C1.41669 9.47668 1.61436 10.4072 1.97189 11.2537C2.16949 11.7215 2.26829 11.9555 2.28052 12.1323C2.29275 12.3091 2.24072 12.5035 2.13665 12.8925L1.41669 15.5833L4.10748 14.8633C4.49644 14.7593 4.69092 14.7072 4.8677 14.7195C5.04449 14.7317 5.27841 14.8305 5.74627 15.0281C6.5928 15.3856 7.5233 15.5833 8.50002 15.5833Z" stroke="#020202" stroke-width="1.25" stroke-linejoin="round"/>
<path d="M6.08325 8.7673L6.70017 8.00109C6.96018 7.67816 7.28158 7.37754 7.30679 6.94756C7.3131 6.83896 7.23674 6.35136 7.08388 5.37619C7.02382 4.99295 6.66601 4.95837 6.35608 4.95837C5.9522 4.95837 5.75027 4.95837 5.54974 5.04997C5.29629 5.16574 5.03608 5.49126 4.97898 5.76398C4.9338 5.97976 4.96737 6.12845 5.03452 6.42582C5.31973 7.68886 5.9888 8.93623 7.02628 9.97373C8.06379 11.0112 9.31116 11.6803 10.5742 11.9655C10.8716 12.0326 11.0202 12.0662 11.2361 12.021C11.5088 11.9639 11.8342 11.7038 11.9501 11.4503C12.0416 11.2497 12.0416 11.0478 12.0416 10.644C12.0416 10.334 12.0071 9.97621 11.6238 9.91614C10.6486 9.76328 10.1611 9.68692 10.0524 9.69323C9.62248 9.71844 9.32186 10.0398 8.99893 10.2998L8.23273 10.9167" stroke="#020202" stroke-width="1.25"/>
</g>
<defs>
<clipPath id="clip0_83_21">
<rect width="17" height="17" fill="white"/>
</clipPath>
</defs>
</svg>
